<?xml version="1.0" encoding="UTF-8" standalone="no"?>
<svg
   xmlns:dc="http://purl.org/dc/elements/1.1/"
   xmlns:cc="http://creativecommons.org/ns#"
   xmlns:rdf="http://www.w3.org/1999/02/22-rdf-syntax-ns#"
   xmlns:svg="http://www.w3.org/2000/svg"
   xmlns="http://www.w3.org/2000/svg"
   xmlns:sodipodi="http://sodipodi.sourceforge.net/DTD/sodipodi-0.dtd"
   xmlns:inkscape="http://www.inkscape.org/namespaces/inkscape"
   width="24"
   height="24"
   class="bi bi-keyboard"
   viewBox="0 0 16 16"
   version="1.1"
   id="svg6"
   sodipodi:docname="keyboard.svg"
   style="fill:#ffffff"
   inkscape:version="0.92.4 (5da689c313, 2019-01-14)">
  <metadata
     id="metadata12">
    <rdf:RDF>
      <cc:Work
         rdf:about="">
        <dc:format>image/svg+xml</dc:format>
        <dc:type
           rdf:resource="http://purl.org/dc/dcmitype/StillImage" />
      </cc:Work>
    </rdf:RDF>
  </metadata>
  <defs
     id="defs10" />
  <sodipodi:namedview
     pagecolor="#ffffff"
     bordercolor="#666666"
     borderopacity="1"
     objecttolerance="10"
     gridtolerance="10"
     guidetolerance="10"
     inkscape:pageopacity="0"
     inkscape:pageshadow="2"
     inkscape:window-width="1920"
     inkscape:window-height="1001"
     id="namedview8"
     showgrid="false"
     inkscape:zoom="14.75"
     inkscape:cx="-4.3050847"
     inkscape:cy="8"
     inkscape:window-x="-9"
     inkscape:window-y="-9"
     inkscape:window-maximized="1"
     inkscape:current-layer="svg6" />
  <path
     d="M 14,5 H 2 A 1,1 0 0 0 1,6 v 5 a 1,1 0 0 0 1,1 h 12 a 1,1 0 0 0 1,-1 V 6 A 1,1 0 0 0 14,5 Z M 2,4 A 2,2 0 0 0 0,6 v 5 a 2,2 0 0 0 2,2 h 12 a 2,2 0 0 0 2,-2 V 6 A 2,2 0 0 0 14,4 Z"
     id="path2"
     inkscape:connector-curvature="0"
     style="fill-rule:evenodd" />
  <path
     d="M 13,10.25 A 0.25,0.25 0 0 1 13.25,10 h 0.5 A 0.25,0.25 0 0 1 14,10.25 v 0.5 A 0.25,0.25 0 0 1 13.75,11 h -0.5 A 0.25,0.25 0 0 1 13,10.75 Z m 0,-2 A 0.25,0.25 0 0 1 13.25,8 h 0.5 A 0.25,0.25 0 0 1 14,8.25 v 0.5 A 0.25,0.25 0 0 1 13.75,9 h -0.5 A 0.25,0.25 0 0 1 13,8.75 Z m -5,0 A 0.25,0.25 0 0 1 8.25,8 h 0.5 A 0.25,0.25 0 0 1 9,8.25 v 0.5 A 0.25,0.25 0 0 1 8.75,9 H 8.25 A 0.25,0.25 0 0 1 8,8.75 Z m 2,0 A 0.25,0.25 0 0 1 10.25,8 h 1.5 A 0.25,0.25 0 0 1 12,8.25 v 0.5 A 0.25,0.25 0 0 1 11.75,9 h -1.5 A 0.25,0.25 0 0 1 10,8.75 Z m 1,2 A 0.25,0.25 0 0 1 11.25,10 h 0.5 A 0.25,0.25 0 0 1 12,10.25 v 0.5 A 0.25,0.25 0 0 1 11.75,11 h -0.5 A 0.25,0.25 0 0 1 11,10.75 Z m -5,-2 A 0.25,0.25 0 0 1 6.25,8 h 0.5 A 0.25,0.25 0 0 1 7,8.25 v 0.5 A 0.25,0.25 0 0 1 6.75,9 H 6.25 A 0.25,0.25 0 0 1 6,8.75 Z m -2,0 A 0.25,0.25 0 0 1 4.25,8 h 0.5 A 0.25,0.25 0 0 1 5,8.25 v 0.5 A 0.25,0.25 0 0 1 4.75,9 H 4.25 A 0.25,0.25 0 0 1 4,8.75 Z m -2,0 A 0.25,0.25 0 0 1 2.25,8 h 0.5 A 0.25,0.25 0 0 1 3,8.25 v 0.5 A 0.25,0.25 0 0 1 2.75,9 H 2.25 A 0.25,0.25 0 0 1 2,8.75 Z m 11,-2 A 0.25,0.25 0 0 1 13.25,6 h 0.5 A 0.25,0.25 0 0 1 14,6.25 v 0.5 A 0.25,0.25 0 0 1 13.75,7 h -0.5 A 0.25,0.25 0 0 1 13,6.75 Z m -2,0 A 0.25,0.25 0 0 1 11.25,6 h 0.5 A 0.25,0.25 0 0 1 12,6.25 v 0.5 A 0.25,0.25 0 0 1 11.75,7 h -0.5 A 0.25,0.25 0 0 1 11,6.75 Z m -2,0 A 0.25,0.25 0 0 1 9.25,6 h 0.5 A 0.25,0.25 0 0 1 10,6.25 v 0.5 A 0.25,0.25 0 0 1 9.75,7 H 9.25 A 0.25,0.25 0 0 1 9,6.75 Z m -2,0 A 0.25,0.25 0 0 1 7.25,6 h 0.5 A 0.25,0.25 0 0 1 8,6.25 v 0.5 A 0.25,0.25 0 0 1 7.75,7 H 7.25 A 0.25,0.25 0 0 1 7,6.75 Z m -2,0 A 0.25,0.25 0 0 1 5.25,6 h 0.5 A 0.25,0.25 0 0 1 6,6.25 v 0.5 A 0.25,0.25 0 0 1 5.75,7 H 5.25 A 0.25,0.25 0 0 1 5,6.75 Z m -3,0 A 0.25,0.25 0 0 1 2.25,6 h 1.5 A 0.25,0.25 0 0 1 4,6.25 v 0.5 A 0.25,0.25 0 0 1 3.75,7 H 2.25 A 0.25,0.25 0 0 1 2,6.75 Z m 0,4 A 0.25,0.25 0 0 1 2.25,10 h 0.5 A 0.25,0.25 0 0 1 3,10.25 v 0.5 A 0.25,0.25 0 0 1 2.75,11 H 2.25 A 0.25,0.25 0 0 1 2,10.75 Z m 2,0 A 0.25,0.25 0 0 1 4.25,10 h 5.5 A 0.25,0.25 0 0 1 10,10.25 v 0.5 A 0.25,0.25 0 0 1 9.75,11 H 4.25 A 0.25,0.25 0 0 1 4,10.75 Z"
     id="path4"
     inkscape:connector-curvature="0" />
</svg>
